<?xml version="1.0" encoding="UTF-8"?>
<!DOCTYPE svg PUBLIC "-//W3C//DTD SVG 1.1//EN" "http://www.w3.org/Graphics/SVG/1.1/DTD/svg11.dtd">
<svg xmlns="http://www.w3.org/2000/svg" version="1.1" width="1000px" height="999px" style="shape-rendering:geometricPrecision; text-rendering:geometricPrecision; image-rendering:optimizeQuality; fill-rule:evenodd; clip-rule:evenodd" xmlns:xlink="http://www.w3.org/1999/xlink">
<g><path style="opacity:0.997" fill="#ff0000" d="M 471.5,-0.5 C 490.167,-0.5 508.833,-0.5 527.5,-0.5C 694.544,13.2378 825.044,88.9044 919,226.5C 968.855,304.566 995.688,389.899 999.5,482.5C 999.5,493.5 999.5,504.5 999.5,515.5C 989.901,679.898 919.234,810.731 787.5,908C 709.277,962.131 622.61,992.298 527.5,998.5C 508.833,998.5 490.167,998.5 471.5,998.5C 321.325,987.005 199.159,923.005 105,806.5C 39.2664,720.817 4.09977,623.817 -0.5,515.5C -0.5,504.5 -0.5,493.5 -0.5,482.5C 7.03451,339.614 63.3678,220.114 168.5,124C 255.388,48.912 356.388,7.41195 471.5,-0.5 Z"/></g>
<g><path style="opacity:1" fill="#fffefe" d="M 463.5,222.5 C 492.649,221.43 521.649,222.93 550.5,227C 580.753,232.134 608.086,243.801 632.5,262C 670.081,295.385 685.581,337.219 679,387.5C 673.113,427.78 655.28,461.614 625.5,489C 597.36,513.574 565.027,530.574 528.5,540C 552.543,546.755 571.71,560.255 586,580.5C 598.209,599.579 608.875,619.579 618,640.5C 626.514,657.016 637.347,671.849 650.5,685C 671.123,700.639 693.123,702.639 716.5,691C 724.73,686.105 732.396,680.438 739.5,674C 752.534,660.634 765.201,646.967 777.5,633C 794.22,622.972 804.72,627.472 809,646.5C 812.516,670.285 805.849,690.618 789,707.5C 779.806,716.694 770.64,725.86 761.5,735C 717.407,774.42 667.073,785.087 610.5,767C 587.8,756.395 569.633,740.562 556,719.5C 551.75,713.335 547.75,707.002 544,700.5C 531.078,675.656 518.411,650.656 506,625.5C 499.501,613.832 492.501,602.498 485,591.5C 474.178,577.672 460.011,570.005 442.5,568.5C 434.347,614.42 426.513,660.42 419,706.5C 406.948,759.5 373.782,782.334 319.5,775C 286.106,770.389 258.606,755.222 237,729.5C 214.538,700.56 200.205,667.893 194,631.5C 184.854,565.916 189.188,501.25 207,437.5C 223.231,381.837 252.065,334.003 293.5,294C 342.29,251.781 398.956,227.948 463.5,222.5 Z"/></g>
<g><path style="opacity:1" fill="#ff0201" d="M 447.5,293.5 C 465.537,293.1 483.537,293.6 501.5,295C 558.064,303.212 584.898,335.712 582,392.5C 576.479,436.354 553.646,467.52 513.5,486C 495.095,494.525 475.761,499.025 455.5,499.5C 461.49,463.406 467.99,427.406 475,391.5C 479.052,362.563 466.552,347.896 437.5,347.5C 415.181,346.901 398.681,356.234 388,375.5C 384.655,384.222 382.321,393.222 381,402.5C 374.988,434.749 369.488,467.082 364.5,499.5C 349.703,497.054 336.369,500.221 324.5,509C 311.724,524.728 311.224,540.895 323,557.5C 331.298,565.1 341.132,568.433 352.5,567.5C 346.434,603.898 339.934,640.231 333,676.5C 331.547,686.601 326.714,694.435 318.5,700C 314.5,700.667 310.5,700.667 306.5,700C 296.386,694.886 288.552,687.386 283,677.5C 269.57,650.783 262.237,622.449 261,592.5C 257.48,541.845 262.814,492.179 277,443.5C 288.992,404.321 309.492,370.488 338.5,342C 369.857,314.712 406.19,298.545 447.5,293.5 Z"/></g>
</svg>
